<?xml version="1.0" encoding="UTF-8" standalone="no"?>
<!-- Created with Inkscape (http://www.inkscape.org/) -->

<svg
   width="232.83333mm"
   height="43.391666mm"
   viewBox="0 0 232.83333 43.391666"
   version="1.1"
   id="svg1"
   xml:space="preserve"
   xmlns="http://www.w3.org/2000/svg"
   xmlns:svg="http://www.w3.org/2000/svg"><defs
     id="defs1" /><g
     id="layer1"
     transform="translate(-1991.0413,-583.47035)"><path
       id="path88"
       style="fill:#fff;fill-opacity:1"
       d="m 1991.0413,583.47033 v 21.69583 21.69584 h 117.7395 115.0938 v -5.82084 h -22.225 -22.225 v -15.74271 -15.7427 h 22.225 22.225 v -6.08542 h -115.0938 z m 5.5557,1.03559 v 1.99575 1.99574 h -1.9958 -1.9957 l 0.078,-1.91823 0.078,-1.91771 1.9177,-0.078 z m 24.0771,0 v 1.99575 1.99574 h -1.9958 -1.9957 l 0.078,-1.91823 0.077,-1.91771 1.9182,-0.078 z m 124.0896,0 v 1.99575 1.99574 h -1.9958 -1.9957 l 0.078,-1.91823 0.077,-1.91771 1.9187,-0.078 z m 54.7687,0 v 1.99575 1.99574 h -1.9957 -1.9958 l 0.078,-1.91823 0.077,-1.91771 1.9182,-0.078 z m 24.0771,0 v 1.99575 1.99574 h -1.9958 -1.9957 l 0.078,-1.91823 0.078,-1.91771 1.9177,-0.078 z m -222.7787,0.0233 h 1.8521 1.8521 v 1.98437 1.98438 h -1.8521 -1.8521 v -1.98438 z m 7.9375,0 h 1.8082 c 0.9944,0 1.8874,0.0792 1.9844,0.17622 0.097,0.0971 0.1762,0.98997 0.1762,1.98437 v 1.80816 h -1.9844 -1.9844 v -1.98438 z m 16.1396,0 h 1.8521 c 1.0187,0 1.8655,0.0892 1.8805,0.19844 0.015,0.1091 0.045,1.00217 0.066,1.98437 l 0.038,1.78542 h -1.9182 l -1.9183,5.2e-4 v -1.98438 z m 7.9375,0 h 1.9844 1.9844 v 1.98437 1.98438 h -1.9844 -1.9844 v -1.98438 z m 6.6146,0 h 1.8082 c 0.9944,0 1.8873,0.0792 1.9843,0.17622 0.097,0.0971 0.1763,0.98997 0.1763,1.98437 v 1.80816 h -1.9844 -1.9844 v -1.98438 z m 7.9375,0 h 1.9844 1.9844 v 1.98437 1.98438 h -1.9844 -1.9844 v -1.98438 z m 8.2021,0 h 1.8521 1.8521 v 1.98437 1.98438 h -1.8521 -1.8521 v -1.98438 z m 7.9375,0 h 1.9844 1.9843 v 1.98437 1.98438 h -1.9843 -1.9844 v -1.98438 z m 7.9375,0 h 1.9844 1.9843 v 1.98437 1.98438 h -1.9843 -1.9844 v -1.98438 z m 8.2021,0 h 1.8521 1.852 v 1.98437 1.98438 h -1.852 -1.8521 v -1.98438 z m 6.35,0 h 1.9844 1.9843 v 1.98437 1.98438 h -1.9843 -1.9844 v -1.98438 z m 8.2021,0 h 1.8081 c 0.9943,0 1.8874,0.0792 1.9844,0.17622 0.097,0.0971 0.1762,0.98997 0.1762,1.98437 v 1.80816 h -1.9844 -1.9843 v -1.98438 z m 7.9375,0 h 1.9843 1.9844 v 1.98437 1.98438 h -1.9844 -1.9843 v -1.98438 z m 8.2449,0 h 1.8304 1.8304 v 1.98437 1.98438 h -1.8076 c -0.9944,0 -1.8573,-0.049 -1.9183,-0.10904 -0.06,-0.06 -0.07,-0.95297 -0.022,-1.98437 z m 7.8946,0 h 1.8082 c 0.9944,0 1.8874,0.0792 1.9844,0.17622 0.097,0.0971 0.1762,0.98997 0.1762,1.98437 v 1.80816 h -1.9844 -1.9844 v -1.98438 z m 7.9375,0 h 1.9844 1.9844 v 1.98437 1.98438 h -1.9844 -1.9844 v -1.98438 z m 6.6146,0 h 1.8082 c 0.9944,0 1.8874,0.0792 1.9844,0.17622 0.097,0.0971 0.1762,0.98997 0.1762,1.98437 v 1.80816 h -1.9844 -1.9844 v -1.98438 z m 16.1391,0 h 1.8304 1.8304 l 0.088,1.87534 c 0.049,1.0314 0.039,1.92437 -0.022,1.98437 -0.061,0.0601 -0.9238,0.10904 -1.9182,0.10904 h -1.8082 v -1.98438 z m 7.938,0 h 1.8082 c 0.9944,0 1.8873,0.0792 1.9843,0.17622 0.097,0.0971 0.1763,0.98997 0.1763,1.98437 v 1.80816 h -1.9844 -1.9844 v -1.98438 z m 8.2021,0 h 1.8521 1.8521 v 1.98437 1.98438 h -1.8521 -1.8521 v -1.98438 z m 7.9375,0 h 1.8082 c 0.9944,0 1.8873,0.0792 1.9843,0.17622 0.097,0.0971 0.1762,0.98997 0.1762,1.98437 v 1.80816 h -1.9843 -1.9844 v -1.98438 z m 6.6146,0 h 1.8521 1.852 v 1.98437 1.98438 h -1.852 -1.8521 v -1.98438 z m 7.9375,0 h 1.8081 c 0.9944,0 1.8874,0.0792 1.9844,0.17622 0.097,0.0971 0.1762,0.98997 0.1762,1.98437 v 1.80816 h -1.9843 -1.9844 v -1.98438 z m 16.1396,0 h 1.852 1.8521 v 1.98437 1.98438 h -1.8521 -1.852 v -1.98438 z m 7.9375,0 h 1.9843 1.9844 v 1.98437 1.98438 h -1.9844 -1.9843 v -1.98438 z m -218.5459,5.02657 h 22.225 22.225 v 15.7427 15.74271 h -22.225 -22.225 v -15.74271 z m 46.5667,0 h 22.225 22.225 v 15.7427 15.74271 h -22.225 -22.225 v -15.74271 z m 46.5667,0 h 22.225 22.225 v 15.7427 15.74271 h -22.225 -22.225 v -15.74271 z m 46.5666,0 h 22.225 22.225 v 15.7427 15.74271 h -22.225 -22.225 v -15.74271 z m -38.563,32.33239 c 0.036,0.0289 0.9294,0.0942 1.9844,0.14418 l 1.9182,0.091 v 1.84071 1.8402 h -1.9844 -1.9843 v -1.98386 -5.2e-4 c 0,-1.09099 0.03,-1.96065 0.066,-1.93166 z m 78.8458,0 c 0.036,0.0289 0.9294,0.0937 1.9844,0.14366 l 1.9182,0.091 v 1.84071 1.8402 h -1.9843 -1.9844 v -1.98386 -5.1e-4 c 0,-1.09099 0.03,-1.96014 0.066,-1.93115 z m -89.7588,0.0796 -5e-4,1.91823 -6e-4,1.91823 h -1.852 -1.8521 v -1.83038 -1.82986 l 1.8526,-0.0884 z m 6.6146,0 -6e-4,1.91823 -5e-4,1.91823 h -1.9843 -1.9844 v -1.8309 -1.83141 l 1.9849,-0.0873 z m 24.077,0 -5e-4,1.91823 -5e-4,1.91823 -1.9182,5.2e-4 -1.9182,5.1e-4 0.087,-1.83141 0.087,-1.83193 1.8319,-0.0873 z m 51.0631,0.0403 h 5e-4 c 0.073,-0.022 0.936,-0.005 1.9182,0.0377 l 1.786,0.078 v 1.8402 1.83968 h -1.8304 -1.8304 l -0.088,-1.87792 5e-4,5.2e-4 c -0.049,-1.02887 -0.029,-1.88978 0.043,-1.91823 z m -172.5078,0.092 h 1.9843 1.9844 v 1.85209 1.85156 h -1.9844 -1.9843 v -1.85156 z m 8.202,0 h 1.8521 1.8521 v 1.85209 1.85156 h -1.8521 -1.8521 v -1.85156 z m 7.9375,0 h 1.9844 1.9844 v 1.85209 1.85156 h -1.9844 -1.9844 v -1.85156 z m 7.9375,0 h 1.9844 1.9844 v 1.85209 1.85156 h -1.9844 -1.9844 v -1.85156 z m 8.2021,0 h 1.9183 1.9182 v 1.85209 1.85156 h -1.9182 -1.9183 v -1.85156 z m 7.9375,0 h 1.9844 1.9844 v 1.85209 1.85156 h -1.9844 -1.9844 v -1.85156 z m 6.6146,0 h 1.9844 1.9844 v 1.85209 1.85156 h -1.9844 -1.9844 v -1.85156 z m 7.9375,0 h 1.9844 1.9844 v 1.85209 1.85156 h -1.9844 -1.9844 v -1.85156 z m 8.2021,0 h 1.8521 1.8521 v 1.85209 1.85156 h -1.8521 -1.8521 v -1.85156 z m 7.9375,0 h 1.9844 1.9843 v 1.85209 1.85156 h -1.9843 -1.9844 v -1.85156 z m 7.9375,0 h 1.9844 1.9843 v 1.85209 1.85156 h -1.9843 -1.9844 v -1.85156 z m 30.6917,0 h 1.9843 1.9844 v 1.85209 1.85156 h -1.9844 -1.9843 v -1.85156 z m 16.1395,0 h 1.9844 1.9844 v 1.85209 1.85156 h -1.9844 -1.9844 v -1.85156 z m 7.9375,0 h 1.9844 1.9844 v 1.85209 1.85156 h -1.9844 -1.9844 v -1.85156 z m 6.6146,0 h 1.9844 1.9844 v 1.85209 1.85156 h -1.9844 -1.9844 v -1.85156 z m 7.9375,0 h 1.9844 1.9844 v 1.85209 1.85156 h -1.9844 -1.9844 v -1.85156 z m 8.2016,0 h 1.8304 1.8304 l 0.088,1.8526 0.088,1.8526 -1.9183,-5.1e-4 -1.9182,-10e-4 v -1.85156 z m 7.938,0 h 1.9844 1.9844 v 1.85209 1.85156 h -1.9844 -1.9844 v -1.85156 z m 26.4583,0 v 1.85209 1.85156 l -1.9182,5.2e-4 h -1.9182 v -1.85157 -1.85156 l 1.9182,-5.2e-4 z m 4.2334,0 h 1.9844 1.9843 v 1.85209 1.85156 h -1.9843 -1.9844 v -1.85156 z m 7.9375,0 h 1.9844 1.9843 v 1.85209 1.85156 h -1.9843 -1.9844 v -1.85156 z m 8.2021,0 h 1.9182 1.9182 v 1.85209 1.85156 h -1.9182 -1.9182 v -1.85156 z m 7.9375,0 h 1.9843 1.9844 v 1.85209 1.85156 h -1.9844 -1.9843 v -1.85156 z m 7.9375,0 h 1.9843 1.9844 v 1.85209 1.85156 h -1.9844 -1.9843 v -1.85156 z" /></g></svg>
