<?xml version="1.0" encoding="UTF-8" standalone="no"?>
<!-- Created with Inkscape (http://www.inkscape.org/) -->

<svg
   width="134.78008mm"
   height="134.78006mm"
   viewBox="0 0 134.78007 134.78006"
   version="1.1"
   id="svg1"
   xml:space="preserve"
   xmlns="http://www.w3.org/2000/svg"
   xmlns:svg="http://www.w3.org/2000/svg"><defs
     id="defs1" /><g
     id="g1"
     transform="translate(7.7929684e-5,-2.0449219e-5)"><rect
       style="fill:none;fill-opacity:1;stroke:none;stroke-width:12.1347;stroke-linecap:square;stroke-dasharray:none;stroke-opacity:1;paint-order:markers stroke fill"
       id="rect286"
       width="134.78008"
       height="134.78008"
       x="-7.792969e-05"
       y="2.0449219e-05" /><path
       id="path285"
       style="fill:#f7567c;fill-opacity:1;stroke:none;stroke-width:6.35475;stroke-linecap:square;stroke-dasharray:none;stroke-opacity:1;paint-order:markers stroke fill"
       d="m 81.092002,33.0148014 -54.807727,33.056308 27.404104,16.527742 1.59119,-0.95983 C 72.491247,71.258137 106.90443,50.502792 106.90443,50.502792 c 0.53056,-0.319975 1.59119,-0.95983 1.59119,-0.95983 z m -0.916846,12.500993 c 1.81832,-0.06052 3.598372,0.318518 4.864599,1.082706 2.533016,1.527735 2.180112,4.216747 -0.786508,6.00599 l 0.639198,0.386 -2.349117,-1.416988 c 1.861072,-1.122368 2.081717,-2.809134 0.493169,-3.767763 -1.589029,-0.958429 -4.466382,-0.950767 -6.247234,0.295813 l -1.708639,-1.029338 v -0.0024 l 4e-4,-4.17e-4 c 1.419462,-0.993591 3.275891,-1.493413 5.094132,-1.553938 z m -9.236271,3.763207 c 0.5344,-0.02538 1.052548,0.07285 1.42979,0.300361 2.577048,1.554315 7.729944,4.662224 7.729944,4.662224 0.754404,0.455029 0.650326,1.250216 -0.233295,1.783135 -5.050419,3.046095 -15.147974,9.136203 -15.147974,9.136203 -0.883621,0.532919 -2.202848,0.595686 -2.957332,0.140665 -2.577048,-1.554306 -7.729543,-4.661808 -7.729543,-4.661808 -0.754485,-0.45502 -0.650247,-1.250223 0.233374,-1.783142 5.050419,-3.046111 15.148374,-9.136612 15.148374,-9.136612 0.441851,-0.266447 0.992262,-0.415615 1.526662,-0.441026 z m 32.504805,6.79992 -12.376065,7.464353 -4.261748,2.570451 -5.714676,3.446707 -5.051139,3.046639 5.05194,3.046648 L 108.49562,59.12598 Z M 76.040062,72.607074 53.687498,86.088593 31.335414,72.607491 26.284275,75.65413 53.688379,92.181872 81.092002,75.65413 Z m -26.168699,-10.330193 1.709919,1.030988 c -1.860432,1.122864 -2.079956,2.809702 -0.490287,3.767755 1.588949,0.958333 4.386002,0.824961 6.246834,-0.297463 l 1.709839,1.030996 c -2.966619,1.789274 -7.424915,2.001833 -9.958651,0.474539 -2.533255,-1.527823 -2.214937,-4.268418 0.781545,-6.006406 z M 103.44369,65.661942 89.970485,73.788254 81.091201,79.143453 76.040062,82.1901 53.687498,95.671611 31.335414,82.190509 26.284275,85.237148 53.688379,101.76531 81.092002,85.237148 108.49562,68.708998 Z" /></g></svg>
