<?xml version="1.0" encoding="UTF-8" standalone="no"?>
<!-- Created with Inkscape (http://www.inkscape.org/) -->

<svg
   width="123.31586mm"
   height="35.182545mm"
   viewBox="0 0 123.31586 35.182545"
   version="1.1"
   id="svg1"
   xml:space="preserve"
   xmlns="http://www.w3.org/2000/svg"
   xmlns:svg="http://www.w3.org/2000/svg"><defs
     id="defs1" /><rect
     style="opacity:0.25;fill:#f7567c;fill-opacity:1;stroke:none;stroke-width:5.93564;stroke-linecap:square;stroke-dasharray:none;paint-order:markers stroke fill"
     id="rect17"
     width="123.31601"
     height="12.512585"
     x="6.7968751e-05"
     y="16.571512" /><path
     d="m 8.4985024,19.298522 q 0,2.403608 3.4486546,2.403608 3.48349,0 3.48349,-2.159764 0,-1.149552 -1.184386,-1.881084 Q 13.061874,16.929749 11.354964,16.44206 9.682889,15.954371 7.9759789,15.327343 6.3039037,14.66548 5.1195171,13.306919 3.9351305,11.913523 3.9351305,9.8582639 q 0,-8.7435598 11.2516725,-8.7435598 4.110518,0 6.200612,1.5675705 2.124929,1.5327355 2.124929,4.2846926 0,1.0102121 -0.278679,1.9507544 -0.243844,0.9057074 -0.522523,1.2888914 l -0.27868,0.418019 h -6.165777 q 0.766368,-0.801203 0.766368,-2.0204245 0,-2.2642685 -2.960967,-2.2642685 -3.727334,0 -3.727334,2.3687732 0,1.1843866 1.184387,1.8810848 1.184386,0.696698 2.856461,1.114717 1.706911,0.383184 3.413821,0.975377 1.70691,0.592193 2.891296,1.985589 1.184387,1.358561 1.184387,3.55316 0,4.424032 -2.647452,6.583796 -2.647453,2.124929 -8.151367,2.124929 -5.5039142,0 -7.5243384,-1.950755 -1.4979007,-1.463065 -1.4979007,-4.040848 0,-0.975377 0.2090094,-2.124929 L 2.36756,18.253475 h 6.270282 l -0.06967,0.418019 q -0.06967,0.348349 -0.06967,0.627028 z m 22.4204166,7.628843 q -4.040848,0 -5.817428,-1.811415 -1.323726,-1.323726 -1.323726,-3.55316 0,-0.731533 0.139339,-1.56757 L 26.285878,6.5141135 32.660664,3.8666611 31.650452,9.6840894 h 9.614433 L 40.394012,14.59581 H 30.77958 l -0.696698,3.936344 q -0.13934,0.661863 -0.13934,1.184387 0,2.194598 2.090094,2.194598 1.114717,0 1.84625,-0.940542 0.766368,-0.940542 1.045047,-2.508113 h 5.782593 q -1.463066,8.464881 -9.788607,8.464881 z m 26.948925,-5.852263 q 0,0.905707 0.905707,0.905707 0.940542,0 1.56757,-0.348349 l -0.174174,3.936344 q -1.672075,1.358561 -3.762169,1.358561 -3.831839,0 -4.249858,-2.786792 -1.741745,2.786792 -5.12073,2.786792 -5.712924,0 -5.712924,-4.911721 0,-0.836038 0.174175,-1.84625 l 0.731532,-4.075683 q 0.557359,-3.135141 2.542948,-4.981391 2.020424,-1.8810843 5.225235,-1.8810843 3.239646,0 4.389198,1.4979003 l 0.174174,-1.0450466 h 5.294905 L 57.902678,20.657083 q -0.03483,0.209009 -0.03483,0.418019 z M 47.556713,19.403027 q -0.06967,0.313514 -0.06967,0.870872 0,0.557358 0.522524,1.114717 0.522523,0.522523 1.741745,0.522523 1.254056,0 2.159764,-0.975377 l 1.045047,-5.852263 q -0.383184,-0.870873 -1.811415,-0.870873 -2.682287,0 -3.135141,2.577783 z m 30.571734,2.577782 q 0.801203,0 1.428231,-0.348349 l -0.174175,3.936344 q -1.63724,1.358561 -4.006013,1.358561 -2.368773,0 -3.518325,-1.254057 -1.114717,-1.254056 -1.741745,-4.215022 l -0.104505,-0.487689 q -0.731533,0.104505 -2.194599,0.174174 l -0.940542,5.294905 H 60.954841 L 65.622718,-1.2741089e-5 h 5.921933 L 69.524227,11.460669 q 2.055259,-2.2642682 5.573584,-2.2642682 2.368773,0 3.48349,1.1843862 1.149551,1.149552 1.149551,3.100307 0,3.762169 -3.936343,5.887098 l 0.383183,1.288891 q 0.383184,1.323726 1.950755,1.323726 z m -6.026438,-8.046862 q -1.881084,0 -3.34415,1.77658 l -0.383184,2.299104 q 5.155565,-0.20901 5.155565,-2.751958 0,-0.592193 -0.383184,-0.940542 -0.348349,-0.383184 -1.045047,-0.383184 z m 25.938692,8.046862 q 0.801203,0 1.428231,-0.348349 l -0.174174,3.936344 q -1.637241,1.358561 -4.006014,1.358561 -2.368773,0 -3.518325,-1.254057 -1.114717,-1.254056 -1.741745,-4.215022 L 89.92417,20.970597 q -0.731533,0.104505 -2.194599,0.174174 l -0.940542,5.294905 H 80.867096 L 85.534972,-1.2741089e-5 h 5.921933 L 89.436481,11.460669 q 2.055259,-2.2642682 5.573584,-2.2642682 2.368773,0 3.48349,1.1843862 1.149552,1.149552 1.149552,3.100307 0,3.762169 -3.936344,5.887098 l 0.383184,1.288891 q 0.383184,1.323726 1.950754,1.323726 z m -6.026437,-8.046862 q -1.881085,0 -3.344151,1.77658 l -0.383184,2.299104 q 5.155565,-0.20901 5.155565,-2.751958 0,-0.592193 -0.383183,-0.940542 -0.348349,-0.383184 -1.045047,-0.383184 z m 25.590346,7.141155 q 0,0.905707 0.9057,0.905707 0.94055,0 1.56757,-0.348349 l -0.17417,3.936344 q -1.67208,1.358561 -3.76217,1.358561 -3.83184,0 -4.24986,-2.786792 -1.74174,2.786792 -5.12073,2.786792 -5.71292,0 -5.71292,-4.911721 0,-0.836038 0.17417,-1.84625 l 0.73154,-4.075683 q 0.55735,-3.135141 2.54294,-4.981391 2.02043,-1.8810843 5.57359,-1.8810843 2.1946,0 3.48349,0.9405423 L 115.34034,-1.2741089e-5 h 5.95677 L 117.63944,20.657083 q -0.0348,0.209009 -0.0348,0.418019 z m -10.31113,-1.672075 q -0.0697,0.313514 -0.0697,0.870872 0,0.557358 0.52252,1.114717 0.52252,0.522523 1.74174,0.522523 1.25406,0 2.15977,-0.975377 l 1.04505,-5.852263 q -0.38319,-0.870873 -1.81142,-0.870873 -2.68229,0 -3.13514,2.577783 z"
     id="text1"
     style="font-size:34.8349px;line-height:1.2;font-family:'Fugaz One';-inkscape-font-specification:'Fugaz One, Normal';letter-spacing:-1.05833px;fill:#f7567c;stroke-width:46.9638;stroke-linecap:square;paint-order:markers stroke fill"
     aria-label="Stakkd" /><rect
     style="opacity:0.25;fill:#f7567c;fill-opacity:1;stroke:none;stroke-width:3.34543;stroke-linecap:square;stroke-dasharray:none;paint-order:markers stroke fill"
     id="rect18"
     width="123.31601"
     height="3.9748156"
     x="6.7968751e-05"
     y="31.207682" /></svg>
