<?xml version="1.0" encoding="UTF-8" standalone="no"?>
<!-- Created with Inkscape (http://www.inkscape.org/) -->

<svg
   width="123.31586mm"
   height="35.182545mm"
   viewBox="0 0 123.31586 35.182545"
   version="1.1"
   id="svg1"
   xml:space="preserve"
   xmlns="http://www.w3.org/2000/svg"
   xmlns:svg="http://www.w3.org/2000/svg"><defs
     id="defs1" /><g
     id="layer1"
     transform="translate(-2048.4096,-510.51229)"><rect
       style="opacity:0.25;fill:#f7567c;fill-opacity:1;stroke:none;stroke-width:5.93564;stroke-linecap:square;stroke-dasharray:none;paint-order:markers stroke fill"
       id="rect17"
       width="123.31601"
       height="12.512585"
       x="2048.4097"
       y="527.0838" /><g
       id="g286"><rect
         style="opacity:1;fill:none;fill-opacity:1;stroke:none;stroke-width:12.1347;stroke-linecap:square;stroke-dasharray:none;stroke-opacity:1;paint-order:markers stroke fill"
         id="rect286"
         width="134.78008"
         height="134.78008"
         x="1944.8126"
         y="399.13446" /><path
         id="path285"
         style="fill:#f7567c;fill-opacity:1;stroke:none;stroke-width:7.9375;stroke-linecap:square;stroke-dasharray:none;stroke-opacity:1;paint-order:markers stroke fill"
         d="m 2029.3174,423.58758 -68.4584,41.28947 34.2295,20.64422 1.9875,-1.19889 c 21.4985,-12.9664 64.4828,-38.89117 64.4828,-38.89117 0.6627,-0.39967 1.9875,-1.19889 1.9875,-1.19889 z m -1.1452,15.61455 c 2.2712,-0.0756 4.4946,0.39785 6.0762,1.35237 3.1639,1.90824 2.7231,5.26699 -0.9824,7.50187 l 0.7984,0.48214 -2.9342,-1.76991 c 2.3246,-1.40191 2.6002,-3.50879 0.616,-4.70618 -1.9848,-1.19714 -5.5788,-1.18757 -7.8032,0.36949 l -2.1342,-1.28571 v -0.003 l 5e-4,-5.2e-4 c 1.773,-1.24106 4.0918,-1.86537 6.3629,-1.94097 z m -11.5367,4.70049 c 0.6675,-0.0317 1.3147,0.091 1.7859,0.37517 3.2189,1.94144 9.6552,5.82342 9.6552,5.82342 0.9423,0.56836 0.8123,1.5616 -0.2914,2.22725 -6.3083,3.80477 -18.9208,11.41171 -18.9208,11.41171 -1.1037,0.66565 -2.7515,0.74405 -3.6939,0.1757 -3.2189,-1.94143 -9.6547,-5.8229 -9.6547,-5.8229 -0.9424,-0.56835 -0.8122,-1.56161 0.2915,-2.22726 6.3083,-3.80479 18.9213,-11.41222 18.9213,-11.41222 0.5519,-0.33281 1.2394,-0.51913 1.9069,-0.55087 z m 40.6006,8.49354 -15.4585,9.32346 -5.3232,3.21066 -7.138,4.30516 -6.3092,3.80545 6.3102,3.80546 34.2289,-20.64422 z m -34.2289,20.64473 -27.9198,16.83929 -27.9192,-16.83877 -6.3092,3.80545 34.2295,20.64422 34.2289,-20.64422 z m -32.6864,-12.90308 2.1358,1.28777 c -2.3238,1.40253 -2.598,3.5095 -0.6124,4.70617 1.9847,1.19702 5.4784,1.03043 7.8027,-0.37155 l 2.1357,1.28778 c -3.7055,2.23492 -9.2742,2.50042 -12.439,0.59273 -3.1642,-1.90835 -2.7666,-5.33153 0.9762,-7.50239 z m 66.9153,4.22816 -16.8289,10.15029 -11.0908,6.68899 -6.3092,3.80546 -27.9198,16.83928 -27.9192,-16.83877 -6.3092,3.80545 34.2295,20.64474 34.2289,-20.64474 34.2289,-20.64473 z" /></g><text
       xml:space="preserve"
       style="font-style:normal;font-variant:normal;font-weight:normal;font-stretch:normal;font-size:34.8349px;line-height:1.2;font-family:'Fugaz One';-inkscape-font-specification:'Fugaz One, Normal';font-variant-ligatures:normal;font-variant-caps:normal;font-variant-numeric:normal;font-variant-east-asian:normal;text-align:start;letter-spacing:-1.05833px;writing-mode:lr-tb;direction:ltr;text-anchor:start;fill:#f7567c;fill-opacity:1;stroke-width:46.9638;stroke-linecap:square;paint-order:markers stroke fill"
       x="2049.5928"
       y="536.95197"
       id="text1"><tspan
         id="tspan1"
         style="font-style:normal;font-variant:normal;font-weight:normal;font-stretch:normal;font-size:34.8349px;font-family:'Fugaz One';-inkscape-font-specification:'Fugaz One, Normal';font-variant-ligatures:normal;font-variant-caps:normal;font-variant-numeric:normal;font-variant-east-asian:normal;letter-spacing:-1.05833px;fill:#f7567c;fill-opacity:1;stroke-width:46.9638"
         x="2049.5928"
         y="536.95197">Stakkd</tspan></text><rect
       style="opacity:0.25;fill:#f7567c;fill-opacity:1;stroke:none;stroke-width:3.34543;stroke-linecap:square;stroke-dasharray:none;paint-order:markers stroke fill"
       id="rect18"
       width="123.31601"
       height="3.9748156"
       x="2048.4097"
       y="541.71997" /></g></svg>
